<?xml version="1.0" encoding="UTF-8"?>
<svg id="Layer_1" data-name="Layer 1" xmlns="http://www.w3.org/2000/svg" width="118.09mm" height="118.09mm" viewBox="0 0 334.76 334.76">
  <defs>
    <style>
      .cls-1 {
        fill: #00a754;
      }
    </style>
  </defs>
  <path class="cls-1" d="m334.76,167.38C334.76,74.94,259.82,0,167.38,0S0,74.94,0,167.38s74.94,167.38,167.38,167.38c40.01,0,76.73-14.06,105.52-37.48l-69.94-69.03c-10.45,6.12-22.6,9.64-35.58,9.64-38.94,0-70.52-31.57-70.52-70.52,0-38.94,31.57-70.52,70.52-70.52s70.52,31.57,70.52,70.52c0,16.88-5.95,32.35-15.85,44.49l-49.98-49.33-9.06,9.18,162.25,160.14,9.06-9.18-43.24-42.68c27.1-29.74,43.68-69.22,43.68-112.62"/>
</svg>